:SAMPLES-PER-SECOND 30
:FULLY-SPECIFIED
:DEGREES
157
root  -0.1234831068 35.31888827 8.424644771 82.4710083 -81.9095993 -87.18399048
lowerback  14.16139984 -1.230110049 -8.424050331
upperback  2.020230055 -3.016410112 -0.1069509983
thorax  -5.365260124 -1.362319946 5.200469971
lowerneck  -5.47976017 11.07240009 -2.464090109
upperneck  10.65789986 14.99510002 0.2865990102
head  4.262819767 7.247539997 1.285079956
lclavicle  0 -9.442270133e-015 7.951389973e-016
lhumerus  19.53750038 21.17589951 52.40869904
lradius  -8.776478247e-032 -3.420318455e-031 75.60849762
lwrist  -1.059337512e-030 1.765562519e-031 56.48329926
lhand  -1.496451383e-031 -27.76390076 20.11240005
lfingers  90 7.125020027 -90
lthumb  89.89689403 5.08795885 91.16245106
rclavicle  0 -9.442270133e-015 7.951389973e-016
rhumerus  -48.45159912 11.09599972 -79.83959961
rradius  8.860503658e-032 3.41815137e-031 75.46769714
rwrist  7.062250077e-031 8.827812596e-031 -51.32500076
rhand  -7.920061211e-032 -33.2840004 9.303460121
rfingers  -90 -7.125020027 -90
rthumb  -92.93752616 -24.25625642 -97.11982154
rfemur  1.60382998 28.68619919 11.93340015
rtibia  -0 0 57.57920074
rfoot  -4.483224305e-032 10.08850002 -3.535969973
rtoes  5.373923086 19.29304026 -105.8922705
lfemur  -30.46019936 -9.124699593 14.52130032
ltibia  -0 0 53.84730148
lfoot  5.011503263e-032 -15.56519985 0.1938180029
ltoes  -4.250644065 -19.5611806 -102.515957
158
root  -0.3318244547 35.41933195 8.564288973 64.92001343 -80.17060089 -68.94000244
lowerback  14.11559963 -1.23853004 -8.356550217
upperback  1.91497004 -3.000540018 0.01403880026
thorax  -5.451220036 -1.343189955 5.289629936
lowerneck  -5.960929871 10.55980015 -3.63173008
upperneck  10.57970047 14.30679989 1.625210047
head  4.135069847 6.940279961 1.884109974
lclavicle  0 -9.442270133e-015 7.951389973e-016
lhumerus  23.22389984 16.9836998 56.37749863
lradius  -7.416778705e-032 -3.452355424e-031 77.87529755
lwrist  -7.062250077e-031 7.062250077e-031 52.74079895
lhand  -1.496451383e-031 -27.76390076 20.11240005
lfingers  90 7.125020027 -90
lthumb  89.89689403 5.08795885 91.16245106
rclavicle  0 -9.442270133e-015 7.951389973e-016
rhumerus  -47.61410141 10.52359962 -80.4815979
rradius  8.982505659e-032 3.414965587e-031 75.26309967
rwrist  7.062250077e-031 7.062250077e-031 -51.77249908
rhand  -7.920061211e-032 -33.2840004 9.303460121
rfingers  -90 -7.125020027 -90
rthumb  -92.93752616 -24.25625642 -97.11982154
rfemur  2.525840044 26.9932003 13.72379971
rtibia  -0 0 56.86180115
rfoot  -4.505426378e-032 11.56820011 -3.580009937
rtoes  5.373923086 19.29304026 -105.8922705
lfemur  -32.81539917 -9.183890343 15.4968996
ltibia  -0 0 53.83879852
lfoot  4.569744575e-032 -15.00619984 -2.191590071
ltoes  -4.250644065 -19.5611806 -102.515957
159
root  -0.5466089005 35.54088863 8.709022192 54.26199341 -78.04100037 -57.5
lowerback  13.78390026 -1.164229989 -8.074250221
upperback  1.938369989 -2.824670076 -0.03455359861
thorax  -5.285289764 -1.269389987 5.031889915
lowerneck  -6.289000034 10.04339981 -4.752940178
upperneck  10.05420017 13.6406002 2.695899963
head  3.867660046 6.645780087 2.370209932
lclavicle  0 -9.442270133e-015 7.951389973e-016
lhumerus  26.37809944 12.19089985 59.48680115
lradius  -5.921322659e-032 -3.481123873e-031 80.34649658
lwrist  -7.062250077e-031 1.765562519e-031 49.51789856
lhand  -1.496451383e-031 -27.76390076 20.11240005
lfingers  90 7.125020027 -90
lthumb  89.89689403 5.08795885 91.16245106
rclavicle  0 -9.442270133e-015 7.951389973e-016
rhumerus  -46.44129944 10.13169956 -81.14810181
rradius  8.924978675e-032 3.416473561e-031 75.35959625
rwrist  7.062250077e-031 5.296687558e-031 -52.11600113
rhand  -7.920061211e-032 -33.2840004 9.303460121
rfingers  -90 -7.125020027 -90
rthumb  -92.93752616 -24.25625642 -97.11982154
rfemur  3.16456008 25.25869942 15.13249969
rtibia  -0 0 56.14379883
rfoot  -9.043876132e-032 12.54930019 -3.456899881
rtoes  5.373923086 19.29304026 -105.8922705
lfemur  -34.96960068 -9.230669975 16.1984005
ltibia  -0 0 53.70999908
lfoot  4.558428476e-032 -14.46609974 -4.121479988
ltoes  -4.250644065 -19.5611806 -102.515957
160
root  -0.7474066704 35.66577641 8.848932972 47.78100586 -75.63600159 -50.14099121
lowerback  13.39840031 -0.9629300237 -7.352970123
upperback  1.954059958 -2.423719883 -0.2149419934
thorax  -5.151229858 -1.091959953 4.349500179
lowerneck  -6.245230198 9.451609612 -5.557670116
upperneck  9.174010277 12.86509991 3.416270018
head  3.47871995 6.29843998 2.656480074
lclavicle  0 -9.442270133e-015 7.951389973e-016
lhumerus  29.0298996 6.664330006 62.09280014
lradius  -4.323542655e-032 -3.504556153e-031 82.96700287
lwrist  -7.062250077e-031 1.765562519e-031 47.02809906
lhand  -1.496451383e-031 -27.76390076 20.11240005
lfingers  90 7.125020027 -90
lthumb  89.89689403 5.08795885 91.16245106
rclavicle  0 -9.442270133e-015 7.951389973e-016
rhumerus  -45.0544014 9.486040115 -81.71109772
rradius  8.679497536e-032 3.422792319e-031 75.77089691
rwrist  7.062250077e-031 7.062250077e-031 -52.3268013
rhand  -7.920061211e-032 -33.2840004 9.303460121
rfingers  -90 -7.125020027 -90
rthumb  -92.93752616 -24.25625642 -97.11982154
rfemur  3.599639893 23.58189964 16.59679985
rtibia  -0 0 55.43500137
rfoot  -4.528404356e-032 12.91170025 -2.934060097
rtoes  5.373923086 19.29304026 -105.8922705
lfemur  -37.09790039 -9.318380356 16.89080048
ltibia  -0 0 53.45560074
lfoot  4.548280881e-032 -13.96199989 -5.601960182
ltoes  -4.250644065 -19.5611806 -102.515957
